<svg width="122.0" height="122.0" xmlns="http://www.w3.org/2000/svg">
<g>
//ARENA
<line stroke="#000000" x1="0" x2="122" y1="0" y2="0"/>
<line stroke="#000000" x1="0" x2="122" y1="122" y2="122"/>
<line stroke="#000000" x1="0" x2="0" y1="0" y2="122"/>
<line stroke="#000000" x1="122" x2="122" y1="0" y2="122"/>

//BARRIER
<line stroke="#000000" x1="47" x2="75" y1="75" y2="47"/>

//GARAGE
<line stroke="#000000" x1="0" x2="23.5" y1="39" y2="39"/>
<line stroke="#000000" x1="23.5" x2="23.5" y1="39" y2="59"/>

//OBSTACLES BOTTOM
<line stroke="#000000" x1="17.5" x2="23.5" y1="98.5" y2="98.5"/>
<line stroke="#000000" x1="17.5" x2="23.5" y1="104.5" y2="104.5"/>
<line stroke="#000000" x1="17.5" x2="17.5" y1="98.5" y2="104.5"/>
<line stroke="#000000" x1="23.5" x2="23.5" y1="98.5" y2="104.5"/>

<line stroke="#000000" x1="32" x2="38" y1="84" y2="84"/>
<line stroke="#000000" x1="32" x2="38" y1="90" y2="90"/>
<line stroke="#000000" x1="32" x2="32" y1="84" y2="90"/>
<line stroke="#000000" x1="38" x2="38" y1="84" y2="90"/>

//OBSTACLES TOP
<line stroke="#000000" x1="85" x2="91" y1="31" y2="31"/>
<line stroke="#000000" x1="85" x2="91" y1="37" y2="37"/>
<line stroke="#000000" x1="85" x2="85" y1="31" y2="37"/>
<line stroke="#000000" x1="91" x2="91" y1="31" y2="37"/>

<line stroke="#000000" x1="100" x2="106" y1="16" y2="16"/>
<line stroke="#000000" x1="100" x2="106" y1="22" y2="22"/>
<line stroke="#000000" x1="100" x2="100" y1="16" y2="22"/>
<line stroke="#000000" x1="106" x2="106" y1="16" y2="22"/>

//CORNERS
<line stroke="#000000" x1="0" x2="39" y1="39" y2="0"/>
<line stroke="#000000" x1="83" x2="122" y1="122" y2="83"/>
</g>
</svg>